<svg xmlns="http://www.w3.org/2000/svg" viewBox="0 0 15 15"><defs><style>.cls-1{fill:#231815;}</style></defs><title>insta-icon</title><g id="レイヤー_2" data-name="レイヤー 2"><g id="デザイン"><path class="cls-1" d="M15,7.51c0,.91,0,1.82,0,2.73a6.38,6.38,0,0,1-.25,1.84,3.83,3.83,0,0,1-3,2.74,6.75,6.75,0,0,1-1.55.16l-4,0C5.6,15,5,15,4.3,15a4.78,4.78,0,0,1-2.25-.59A3.83,3.83,0,0,1,.22,11.92,6.19,6.19,0,0,1,0,10.26c0-1.68,0-3.37,0-5A9.84,9.84,0,0,1,.12,3.5,3.92,3.92,0,0,1,2,.66,4.2,4.2,0,0,1,3.74.1,18.07,18.07,0,0,1,6,0H9.72A11.74,11.74,0,0,1,11.5.13a4,4,0,0,1,2.94,2.06,4.3,4.3,0,0,1,.48,1.71c0,.61.06,1.22.07,1.83s0,1.19,0,1.78Zm-1.31-.25c0-.76,0-1.77-.05-2.78a4.32,4.32,0,0,0-.15-1.07,2.49,2.49,0,0,0-1.58-1.79,4.65,4.65,0,0,0-1.38-.24c-.72,0-1.44,0-2.16,0-1.15,0-2.31,0-3.46,0a7.42,7.42,0,0,0-1.24.11A2.5,2.5,0,0,0,1.53,3.39a4.92,4.92,0,0,0-.17,1.43q0,2.69,0,5.37a5.42,5.42,0,0,0,.14,1.33,2.49,2.49,0,0,0,1.31,1.73,3.38,3.38,0,0,0,1.4.36c.65,0,1.3.05,2,.05,1.3,0,2.61,0,3.91,0a8.94,8.94,0,0,0,1.27-.11,2.52,2.52,0,0,0,2.15-2,6.61,6.61,0,0,0,.15-1.47C13.65,9.22,13.66,8.36,13.67,7.26Z"/><path class="cls-1" d="M7.5,3.65A3.86,3.86,0,1,1,3.64,7.49,3.85,3.85,0,0,1,7.5,3.65Zm0,6.36A2.51,2.51,0,1,0,5,7.49,2.51,2.51,0,0,0,7.49,10Z"/><path class="cls-1" d="M11.5,2.6a.9.9,0,1,1-.9.9A.9.9,0,0,1,11.5,2.6Z"/></g></g></svg>