<svg id="_2" data-name="2" xmlns="http://www.w3.org/2000/svg" viewBox="0 0 222.43 500.71"><defs><style>.cls-1{fill:#4b4b4b;}</style></defs><title>title_L</title><g id="title_L"><path class="cls-1" d="M165.48,9.74a102.66,102.66,0,0,0-87.29,0c-20.07,9.38-37,24.95-48.83,44.36a131.6,131.6,0,0,0,2.89,140A113.47,113.47,0,0,0,81,235.15v66.69H79.78A10.14,10.14,0,0,0,69.64,312V448.53a52.19,52.19,0,0,0,104.38,0V312a10.14,10.14,0,0,0-10.13-10.13H162.7V235.15a113.47,113.47,0,0,0,48.71-41.08,129.25,129.25,0,0,0,21.64-72.24c0-33.33-12.22-63.66-32.22-85.77A111.39,111.39,0,0,0,165.48,9.74ZM121.83,454.93a13.79,13.79,0,1,1,13.79-13.78A13.78,13.78,0,0,1,121.83,454.93Zm0-96.54a13.8,13.8,0,1,1,13.79-13.79A13.79,13.79,0,0,1,121.83,358.39Zm72.41-175.87c-11.34,16.85-27.18,29.48-45.31,35.84L142,220.78v81.06H101.65V220.78l-6.92-2.42c-18.12-6.36-34-19-45.31-35.84A108.52,108.52,0,0,1,31.3,121.83c0-28.25,10.37-53.65,26.87-71.89A90.89,90.89,0,0,1,87,28.48a81.89,81.89,0,0,1,69.76,0c16.14,7.53,30,20.24,39.94,36.41a110.86,110.86,0,0,1-2.41,117.63Z" transform="translate(-10.62)"/><path class="cls-1" d="M90.94,57.45a62.38,62.38,0,0,0-25.87,24.6,73,73,0,0,0-9.81,36.84,9.31,9.31,0,1,0,18.62,0,54.43,54.43,0,0,1,7.25-27.43A43.85,43.85,0,0,1,99.2,74.14a9.31,9.31,0,0,0-8.26-16.69Z" transform="translate(-10.62)"/></g></svg>