<svg id="_2" data-name="2" xmlns="http://www.w3.org/2000/svg" viewBox="0 0 242.61 505.42"><defs><style>.cls-1{fill:#4b4b4b;}</style></defs><title>title_R</title><path id="title_R" class="cls-1" d="M490.65,17.33a36.67,36.67,0,0,0-62.6,25.93V152.35A24.67,24.67,0,0,1,425.82,163a21.81,21.81,0,0,1-3.86,5.62,23.51,23.51,0,0,1-5.21,4.09V43.26a36.67,36.67,0,1,0-73.34,0V172.68a23,23,0,0,1-6.65-5.8,21.57,21.57,0,0,1-3.33-6.19,25.5,25.5,0,0,1-1.3-8.35V43.26a36.68,36.68,0,0,0-73.35,0V158.61a96.56,96.56,0,0,0,7.33,37.9,89.72,89.72,0,0,0,13.52,22.26,106.48,106.48,0,0,0,28.14,23.64,141.16,141.16,0,0,0,29.53,13V313.2a10.09,10.09,0,0,0-9.4,10.05V459.82a52.19,52.19,0,0,0,104.38,0V323.25a10.1,10.1,0,0,0-9.41-10.05V255.4a143.79,143.79,0,0,0,26.08-11c13.9-7.64,27-18.18,36.71-32.43a88.59,88.59,0,0,0,11.52-24,99.73,99.73,0,0,0,4.21-29.29V43.26A36.51,36.51,0,0,0,490.65,17.33ZM380.08,466.22a13.79,13.79,0,1,1,13.79-13.8A13.79,13.79,0,0,1,380.08,466.22Zm0-96.55a13.79,13.79,0,1,1,13.79-13.78A13.78,13.78,0,0,1,380.08,369.67ZM480.7,158.61a76.13,76.13,0,0,1-5.7,29.87,69.43,69.43,0,0,1-10.42,17.12,85.66,85.66,0,0,1-22.7,19,122.3,122.3,0,0,1-27.2,11.67l-.47.13c-.48.14-1.18.34-2,.64a21.51,21.51,0,0,0-2.11.88,15.49,15.49,0,0,0-4.23,2.93,12.57,12.57,0,0,0-2.44,3.35,12,12,0,0,0-1.24,5.31v63.62H358V249.51a12,12,0,0,0-1.36-5.51,12.92,12.92,0,0,0-2.25-3.07,15.21,15.21,0,0,0-3.53-2.61,21.74,21.74,0,0,0-3.73-1.57l-1.22-.37-.37-.1h0a123.53,123.53,0,0,1-24.29-10c-11.7-6.43-22.13-15-29.57-25.93a68.18,68.18,0,0,1-8.85-18.47,79.43,79.43,0,0,1-3.31-23.24V43.26a16,16,0,0,1,32,0V152.35a45.16,45.16,0,0,0,4.2,19.43,42.34,42.34,0,0,0,7.55,11,44.84,44.84,0,0,0,14.86,10.3,40.79,40.79,0,0,0,15.89,3.44h11.24l-.93-11.2c-.11-1.26-.15-2.32-.15-2.93V43.26a16,16,0,0,1,32,0V182.43c0,.61-.05,1.67-.15,2.93l-.93,11.2h11.23a40.51,40.51,0,0,0,14.14-2.72,44.65,44.65,0,0,0,19.44-14.33,42.12,42.12,0,0,0,6.51-12.14,46.16,46.16,0,0,0,2.42-15V43.26a16,16,0,0,1,32,0V158.61Z" transform="translate(-258.78 -6.58)"/></svg>